<?xml version="1.0" standalone="no"?>
<!DOCTYPE svg PUBLIC "-//W3C//DTD SVG 20010904//EN"
 "http://www.w3.org/TR/2001/REC-SVG-20010904/DTD/svg10.dtd">
<svg version="1.0" xmlns="http://www.w3.org/2000/svg"
 width="4500.000000pt" height="4500.000000pt" viewBox="0 0 4500.000000 4500.000000"
 preserveAspectRatio="xMidYMid meet">

<g transform="translate(0.000000,4500.000000) scale(0.100000,-0.100000)"
fill="#ffffff" stroke="none">
<path d="M11465 17414 c-11 -2 -45 -9 -75 -15 -128 -26 -257 -124 -310 -234
-61 -128 -61 -302 -1 -430 50 -108 123 -173 248 -222 61 -24 81 -27 198 -27
108 0 140 4 189 22 83 31 133 63 188 119 90 93 123 195 116 358 -4 87 -9 111
-36 168 -55 119 -164 208 -296 243 -55 15 -188 26 -221 18z m172 -253 c50 -25
97 -78 113 -126 7 -21 10 -69 8 -110 -3 -62 -8 -81 -33 -117 -89 -128 -299
-129 -387 -3 -72 103 -50 269 44 336 71 51 178 60 255 20z"/>
<path d="M14121 17404 c-141 -38 -266 -135 -323 -251 -33 -67 -33 -69 -33
-208 0 -138 0 -141 33 -207 80 -163 261 -261 482 -261 141 0 266 39 349 108
l31 27 0 209 0 209 -215 0 -215 0 0 -95 0 -94 93 -3 92 -3 3 -51 c3 -48 1 -52
-25 -62 -126 -49 -213 -40 -288 30 -113 103 -95 321 34 413 38 27 51 30 114
30 74 0 120 -15 193 -64 l32 -21 69 82 c38 46 73 89 77 95 10 18 -103 89 -182
113 -78 24 -239 26 -321 4z"/>
<path d="M17113 17410 c-126 -23 -254 -99 -311 -186 -94 -141 -107 -356 -31
-506 27 -53 103 -133 154 -164 113 -66 287 -91 418 -60 236 56 367 219 367
456 0 225 -115 380 -330 444 -68 20 -199 28 -267 16z m176 -236 c212 -63 217
-375 8 -453 -45 -17 -128 -13 -177 10 -95 43 -135 107 -135 219 0 88 24 143
80 186 70 53 136 65 224 38z"/>
<path d="M18027 17405 c-157 -40 -227 -115 -235 -255 -10 -169 45 -226 280
-291 110 -30 182 -62 207 -93 11 -13 11 -20 -3 -41 -24 -36 -85 -51 -153 -37
-61 13 -187 67 -204 88 -6 8 -17 14 -25 14 -15 0 -144 -149 -144 -166 0 -27
139 -101 245 -129 88 -24 262 -22 341 3 133 42 200 122 211 249 14 167 -44
228 -282 294 -165 46 -228 85 -206 128 6 11 20 25 31 31 48 26 167 1 266 -57
l42 -24 62 88 c47 66 60 91 53 102 -14 23 -98 68 -163 87 -75 23 -248 28 -323
9z"/>
<path d="M19204 17404 c-88 -21 -162 -69 -199 -128 -24 -40 -30 -62 -33 -123
-5 -99 3 -137 40 -179 41 -47 104 -77 235 -114 121 -34 189 -65 209 -96 13
-19 12 -24 -12 -47 -54 -54 -149 -45 -293 29 -47 24 -86 44 -88 44 -9 0 -133
-156 -133 -167 0 -7 24 -28 53 -47 190 -121 486 -134 639 -27 74 52 116 154
105 258 -8 74 -35 122 -88 159 -43 28 -79 41 -255 93 -73 21 -129 53 -148 84
-9 15 -6 23 18 44 45 39 128 30 237 -24 46 -23 86 -40 89 -38 3 2 32 42 64 89
67 98 67 100 -17 142 -117 60 -291 79 -423 48z"/>
<path d="M26412 17410 c-58 -12 -140 -50 -179 -84 -52 -44 -73 -100 -73 -196
0 -159 43 -201 275 -270 197 -58 245 -95 192 -147 -37 -38 -96 -41 -189 -9
-42 14 -100 39 -127 57 -28 17 -55 29 -60 27 -5 -1 -38 -39 -75 -82 -73 -89
-73 -86 5 -136 198 -128 534 -123 662 8 51 53 68 101 69 196 2 153 -40 194
-278 266 -116 36 -163 55 -185 76 -36 34 -36 47 -1 74 42 34 126 25 227 -25
44 -21 83 -39 87 -39 8 -1 128 165 128 177 0 15 -96 68 -160 89 -73 23 -246
33 -318 18z"/>
<path d="M30055 17401 c-180 -51 -310 -180 -344 -339 -22 -105 -9 -236 33
-327 126 -276 577 -350 786 -129 27 29 50 59 50 66 0 14 -170 138 -188 138 -5
0 -16 -10 -25 -23 -8 -12 -38 -35 -67 -51 -45 -25 -60 -28 -119 -24 -81 4
-135 35 -178 100 -23 33 -28 55 -32 115 -4 94 15 148 73 201 89 82 208 82 301
0 28 -25 49 -37 57 -32 7 5 50 37 95 72 94 72 93 69 22 140 -47 46 -120 85
-190 101 -67 16 -206 12 -274 -8z"/>
<path d="M9280 16950 l0 -460 125 0 125 0 0 130 0 131 63 -7 c89 -9 195 11
277 53 114 56 179 152 188 274 7 95 -17 159 -82 225 -92 92 -188 114 -493 114
l-203 0 0 -460z m474 209 c45 -39 55 -84 30 -135 -29 -57 -72 -75 -169 -72
l-80 3 -3 118 -3 117 95 0 c92 0 96 -1 130 -31z"/>
<path d="M10140 16950 l0 -460 130 0 130 0 0 141 0 140 53 -3 52 -3 93 -137
93 -138 150 0 150 0 -44 63 c-24 34 -73 105 -109 157 l-66 96 44 23 c81 44
136 146 138 261 1 92 -19 152 -71 210 -79 89 -182 110 -524 110 l-219 0 0
-460z m484 226 c40 -17 76 -60 76 -93 0 -37 -27 -81 -60 -98 -20 -11 -60 -15
-135 -15 l-105 0 0 110 0 110 95 0 c59 0 108 -5 129 -14z"/>
<path d="M12040 17295 l0 -115 140 0 140 0 0 -345 0 -345 125 0 125 0 0 345 0
345 140 0 140 0 0 115 0 115 -405 0 -405 0 0 -115z"/>
<path d="M12940 16950 l0 -460 375 0 375 0 0 110 0 110 -250 0 -250 0 0 70 0
70 220 0 220 0 0 100 0 100 -217 2 -218 3 -3 68 -3 67 246 0 245 0 0 110 0
110 -370 0 -370 0 0 -460z"/>
<path d="M14780 16950 l0 -460 370 0 370 0 0 110 0 110 -245 0 -245 0 0 70 0
70 220 0 220 0 0 100 0 100 -217 2 -218 3 -3 68 -3 67 246 0 245 0 0 110 0
110 -370 0 -370 0 0 -460z"/>
<path d="M15630 16950 l0 -460 125 0 125 0 2 257 3 258 114 -173 c62 -94 117
-172 121 -172 4 0 59 78 121 173 l114 172 3 -257 2 -258 125 0 125 0 0 460 0
461 -137 -3 -136 -3 -106 -172 c-58 -94 -108 -170 -111 -168 -3 2 -53 80 -110
174 l-105 171 -137 0 -138 0 0 -460z"/>
<path d="M19822 17078 l3 -333 26 -56 c65 -138 211 -219 394 -219 229 0 399
130 423 323 4 29 6 179 4 335 l-3 282 -130 0 -130 0 7 -247 c7 -274 -1 -344
-51 -409 -50 -65 -160 -72 -221 -13 -63 61 -69 99 -67 402 l3 267 -131 0 -130
0 3 -332z"/>
<path d="M21150 16950 l0 -460 130 0 130 0 0 460 0 460 -130 0 -130 0 0 -460z"/>
<path d="M21560 16950 l0 -460 125 0 125 0 2 246 3 246 190 -246 190 -245 113
-1 112 0 0 460 0 460 -125 0 -125 0 -2 -236 -3 -237 -184 237 -184 236 -118 0
-119 0 0 -460z"/>
<path d="M22570 16950 l0 -460 125 0 125 0 2 163 3 162 218 3 217 2 0 105 0
105 -220 0 -220 0 0 75 0 75 240 0 240 0 0 115 0 115 -365 0 -365 0 0 -460z"/>
<path d="M23400 16950 l0 -460 125 0 124 0 3 138 3 137 51 3 51 3 93 -141 93
-140 281 2 280 3 31 77 30 78 176 0 177 0 33 -80 33 -80 138 0 c110 0 136 3
132 13 -3 8 -89 213 -193 458 l-187 444 -129 0 -128 0 -188 -443 c-103 -244
-189 -446 -192 -448 -3 -3 -50 61 -106 142 l-100 147 44 28 c86 54 135 154
135 274 0 87 -24 150 -80 206 -80 80 -174 99 -507 99 l-223 0 0 -460z m485
226 c43 -18 69 -59 68 -104 -1 -28 -9 -44 -37 -69 l-36 -33 -115 0 -115 0 0
103 c0 57 3 107 7 110 13 13 193 7 228 -7z m909 -200 c25 -65 46 -120 46 -122
0 -2 -43 -4 -95 -4 -59 0 -95 4 -95 10 0 9 23 70 81 219 5 13 11 22 14 20 2
-2 24 -57 49 -123z"/>
<path d="M25330 16950 l0 -460 370 0 370 0 0 110 0 110 -245 0 -245 0 0 70 0
70 220 0 220 0 0 100 0 100 -220 0 -220 0 0 70 0 70 245 0 245 0 0 110 0 110
-370 0 -370 0 0 -460z"/>
<path d="M26940 17295 l0 -115 140 0 140 0 0 -345 0 -345 125 0 125 0 0 345 0
345 140 0 140 0 0 115 0 115 -405 0 -405 0 0 -115z"/>
<path d="M27840 16950 l0 -460 125 0 124 0 3 138 3 137 53 3 52 3 92 -140 92
-141 148 0 c81 0 148 2 148 4 0 2 -47 73 -105 157 l-104 152 42 27 c89 56 137
150 137 269 0 93 -23 155 -80 212 -80 80 -174 99 -507 99 l-223 0 0 -460z
m485 226 c42 -18 69 -58 69 -104 0 -27 -8 -42 -37 -68 l-37 -34 -115 0 -115 0
0 103 c0 57 3 107 7 110 13 13 193 7 228 -7z"/>
<path d="M28752 17078 l3 -333 28 -57 c68 -139 213 -218 397 -218 219 0 390
128 417 311 5 30 7 183 5 342 l-4 287 -129 0 -129 0 6 -247 c6 -212 4 -257
-10 -312 -29 -114 -79 -157 -173 -149 -44 4 -60 11 -89 39 -62 60 -69 105 -66
407 l3 262 -131 0 -131 0 3 -332z"/>
<path d="M30620 17295 l0 -115 140 0 140 0 0 -345 0 -345 125 0 125 0 0 345 0
345 140 0 140 0 0 115 0 115 -405 0 -405 0 0 -115z"/>
<path d="M31510 17090 c0 -296 1 -323 20 -374 56 -150 184 -234 370 -244 199
-10 355 69 427 216 l28 57 3 333 3 332 -131 0 -132 0 7 -234 c8 -254 1 -331
-38 -402 -56 -99 -204 -99 -261 0 -42 73 -49 139 -41 399 l7 237 -131 0 -131
0 0 -320z"/>
<path d="M32490 16951 l0 -461 130 0 130 0 0 140 0 140 53 0 52 -1 93 -139 92
-140 279 0 279 0 32 80 32 80 177 0 176 0 31 -78 31 -77 137 -3 c75 -1 136 1
136 5 0 4 -86 211 -191 460 l-192 453 -126 0 -126 0 -190 -450 c-105 -247
-192 -450 -195 -450 -3 1 -50 67 -104 147 -90 132 -98 148 -82 157 70 42 96
69 128 133 30 61 33 76 33 153 -1 96 -21 152 -75 208 -77 80 -141 93 -472 99
l-268 5 0 -461z m484 225 c77 -32 99 -110 47 -168 l-29 -33 -121 -3 -121 -4 0
111 0 111 95 0 c59 0 108 -5 129 -14z m915 -196 c23 -58 41 -111 41 -117 0
-10 -26 -13 -96 -13 -87 0 -96 2 -90 18 43 117 92 230 98 224 4 -4 25 -54 47
-112z"/>
<path d="M34770 16950 l0 -460 130 0 130 0 0 460 0 460 -130 0 -130 0 0 -460z"/>
<path d="M35130 17295 l0 -115 135 0 135 0 0 -345 0 -345 130 0 130 0 0 345 0
345 135 0 135 0 0 115 0 115 -400 0 -400 0 0 -115z"/>
</g>
</svg>

